HIERARCHY
ROOT root
{
	OFFSET 0.000000 0.000000 0.000000
	CHANNELS 6 Xposition Yposition Zposition Zrotation Yrotation Xrotation
	JOINT lhip
	{
		OFFSET 0.058581 -0.082280 -0.017664
		CHANNELS 3 Zrotation Yrotation Xrotation
		JOINT lknee
		{
			OFFSET 0.043451 -0.386469 0.008037
			CHANNELS 3 Zrotation Yrotation Xrotation
			JOINT lankle
			{
				OFFSET -0.014790 -0.426874 -0.037428
				CHANNELS 3 Zrotation Yrotation Xrotation
				JOINT ltoe
				{
					OFFSET 0.041054 -0.060286 0.122042
					CHANNELS 3 Zrotation Yrotation Xrotation
					End Site
					{
						OFFSET 0.000000 0.000000 0.000000
					}
				}
			}
		}
	}
	JOINT rhip
	{
		OFFSET -0.060310 -0.090513 -0.013543
		CHANNELS 3 Zrotation Yrotation Xrotation
		JOINT rknee
		{
			OFFSET -0.043257 -0.383688 -0.004843
			CHANNELS 3 Zrotation Yrotation Xrotation
			JOINT rankle
			{
				OFFSET 0.019056 -0.420046 -0.034562
				CHANNELS 3 Zrotation Yrotation Xrotation
				JOINT rtoe
				{
					OFFSET -0.034840 -0.062106 0.130323
					CHANNELS 3 Zrotation Yrotation Xrotation
					End Site
					{
						OFFSET 0.000000 0.000000 0.000000
					}
				}
			}
		}
	}
	JOINT lowerback
	{
		OFFSET 0.004439 0.124404 -0.038385
		CHANNELS 3 Zrotation Yrotation Xrotation
		JOINT upperback
		{
			OFFSET 0.004488 0.137956 0.026820
			CHANNELS 3 Zrotation Yrotation Xrotation
			JOINT chest
			{
				OFFSET -0.002265 0.056032 0.002855
				CHANNELS 3 Zrotation Yrotation Xrotation
				JOINT lowerneck
				{
					OFFSET -0.013390 0.211636 -0.033468
					CHANNELS 3 Zrotation Yrotation Xrotation
					JOINT upperneck
					{
						OFFSET 0.010113 0.088937 0.050410
						CHANNELS 3 Zrotation Yrotation Xrotation
						End Site
						{
							OFFSET 0.000000 0.000000 0.000000
						}
					}
				}
				JOINT lclavicle
				{
					OFFSET 0.071702 0.114000 -0.018898
					CHANNELS 3 Zrotation Yrotation Xrotation
					JOINT lshoulder
					{
						OFFSET 0.122921 0.045205 -0.019046
						CHANNELS 3 Zrotation Yrotation Xrotation
						JOINT lelbow
						{
							OFFSET 0.255332 -0.015649 -0.022946
							CHANNELS 3 Zrotation Yrotation Xrotation
							JOINT lwrist
							{
								OFFSET 0.265709 0.012698 -0.007375
								CHANNELS 3 Zrotation Yrotation Xrotation
								End Site
								{
									OFFSET 0.000000 0.000000 0.000000
								}
							}
						}
					}
				}
				JOINT rclavicle
				{
					OFFSET -0.082954 0.112472 -0.023707
					CHANNELS 3 Zrotation Yrotation Xrotation
					JOINT rshoulder
					{
						OFFSET -0.113228 0.046853 -0.008472
						CHANNELS 3 Zrotation Yrotation Xrotation
						JOINT relbow
						{
							OFFSET -0.260127 -0.014369 -0.031269
							CHANNELS 3 Zrotation Yrotation Xrotation
							JOINT rwrist
							{
								OFFSET -0.269108 0.006794 -0.006027
								CHANNELS 3 Zrotation Yrotation Xrotation
								End Site
								{
									OFFSET 0.000000 0.000000 0.000000
								}
							}
						}
					}
				}
			}
		}
	}
}
MOTION
Frames: 15
Frame Time: 0.033333
-0.280498 0.848556 0.199622 -89.489789 -2.419146 -9.596289 20.380786 0.773600 -81.089960 0.853292 30.183074 131.575959 2.905208 -4.261377 -14.300145 0.000000 -0.000000 0.000000 -21.244919 2.141088 -86.631506 -8.999990 -24.952519 135.960288 4.455955 1.642060 -2.894127 0.000000 -0.000000 0.000000 -3.863837 1.154451 32.348071 4.755676 -3.215070 18.709319 -5.960813 -1.897355 -5.531940 2.407653 8.975733 30.621990 1.578169 -3.390052 7.150874 -23.341314 -34.511755 13.020071 -18.923388 -15.351711 7.109549 10.866083 -39.749487 -0.508166 -2.384445 -14.986584 23.265356 26.517977 32.376935 20.623550 31.367872 32.027044 -1.206840 -31.378872 38.066205 -27.551919 -1.648289 17.859089 -25.695300 
-0.311015 0.845988 0.198588 -88.411227 -1.943080 -0.400903 17.484861 -0.944201 -78.402541 0.392610 29.627329 135.935374 4.798647 -3.035176 -13.690398 0.000000 -0.000000 0.000000 -19.072952 3.092551 -84.085659 -8.411168 -22.452014 140.361934 0.498612 -1.214868 -1.491352 0.000000 -0.000000 0.000000 -6.029837 2.505618 34.574162 4.881815 -4.089655 18.117193 -4.824445 -2.186722 -6.388991 0.479845 8.573959 29.940632 2.788681 -0.385282 4.185717 -28.557328 -34.306638 17.343141 -18.090787 -11.572013 5.964072 9.089242 -36.559159 -1.110701 -2.443707 -14.260369 21.772551 32.169345 32.061763 24.336080 30.935635 28.642694 -1.679839 -27.339544 35.772754 -24.204678 1.691390 17.649347 -23.495475 
-0.333815 0.843069 0.198729 -88.689252 -1.314674 9.507410 14.705240 -2.190420 -78.158836 -1.212774 27.906725 135.409572 6.496843 -1.326225 -13.682939 0.000000 -0.000000 0.000000 -15.869999 4.087310 -83.497231 -7.189967 -21.407703 139.202820 -1.570079 -2.017342 -1.113339 0.000000 -0.000000 0.000000 -5.869338 2.444378 41.751025 4.017569 -3.890494 12.296084 -3.911989 -1.974098 -5.841496 -0.591312 7.463931 25.522703 4.162027 0.033428 3.195404 -28.444523 -33.909509 16.191445 -18.330595 -10.321728 4.621752 8.392922 -35.599813 -0.325969 -5.777041 -14.123297 21.464399 31.639749 32.768874 23.800222 32.888503 26.033115 -1.339775 -25.138441 34.382263 -21.385297 3.304340 18.329552 -20.569639 
-0.355436 0.843699 0.210119 -88.962434 -0.615820 19.182713 12.294443 -2.772102 -79.375925 -1.927949 25.402213 131.952562 2.020225 0.768692 -3.612879 0.000000 -0.000000 0.000000 -13.855633 4.954547 -82.827486 -7.390299 -20.260490 135.291200 -0.710217 -2.352579 -0.835662 0.000000 -0.000000 0.000000 -5.413924 2.522671 48.642180 3.228203 -3.771201 7.042192 -3.101398 -1.776825 -3.656004 -0.128060 7.436251 17.236208 4.715591 -2.492575 7.453094 -24.748495 -35.370827 12.643872 -18.388032 -10.891436 4.365981 8.450678 -32.487270 0.155773 -4.538949 -15.228273 21.529057 27.644337 34.792129 20.132752 34.676377 25.173175 -0.808615 -22.670458 31.547100 -20.208544 0.973428 18.911821 -23.038389 
-0.383313 0.843057 0.230079 -88.795963 -0.276743 27.012449 14.211232 -1.370305 -86.669259 -2.016675 26.866693 132.667004 1.371669 -1.342549 4.950212 0.000000 -0.000000 0.000000 -14.953882 2.567469 -88.250269 -6.129388 -20.608911 134.172275 1.894360 -3.775168 11.433186 0.000000 -0.000000 0.000000 -4.849187 2.815379 55.615347 2.723662 -3.584419 2.903129 -2.459997 -2.261889 -2.362777 -1.388780 5.996199 10.850391 5.977564 -2.430411 8.863011 -20.842275 -37.003689 10.431485 -16.533894 -11.810683 3.083903 7.968607 -29.780653 -0.980059 -2.537473 -16.737447 21.792945 22.545348 37.043006 17.437135 34.554127 25.464719 -0.335753 -21.761093 28.443806 -21.394171 2.876865 18.137016 -19.673580 
-0.418252 0.844091 0.248991 -89.185920 0.302064 33.656670 16.609868 1.816905 -93.376496 -1.880419 28.296441 137.911403 1.362862 -3.528656 -2.600448 0.000000 -0.000000 0.000000 -16.097487 -0.355229 -94.878820 -5.856368 -21.229137 139.866289 2.163699 0.098168 2.547069 0.000000 -0.000000 0.000000 -3.968702 2.765256 61.595778 2.631981 -3.087100 -1.563563 -2.144508 -2.266940 -0.331496 -0.397883 7.996692 7.651945 5.616800 -5.256579 7.666510 -16.751268 -39.120038 6.296890 -14.444366 -12.681769 3.793566 7.957320 -26.358236 -0.540699 -3.146692 -18.093216 21.159749 18.227351 38.824106 12.943141 32.590005 25.424447 -0.206143 -20.406873 25.653478 -19.336768 4.167318 17.913266 -18.703223 
-0.444153 0.843807 0.268751 -89.666514 0.864476 40.856508 14.159764 3.311839 -96.709080 -2.482362 27.899739 137.492336 3.002970 -0.530394 -3.363906 0.000000 -0.000000 0.000000 -15.492675 -0.836716 -98.240191 -5.233123 -21.420182 139.495528 1.468025 -3.559199 1.897689 0.000000 -0.000000 0.000000 -3.310605 2.705217 65.426060 2.742455 -2.685296 -4.662319 -1.588841 -2.225103 0.396811 -1.049161 7.303386 3.305607 5.202535 -5.535821 7.868400 -14.595155 -40.123846 3.484415 -10.209425 -14.690990 2.200018 6.871745 -24.296449 -0.339630 -3.060935 -17.798436 20.777150 16.112155 40.008236 9.557381 28.349831 26.974066 -1.325650 -19.535435 22.527696 -20.169896 3.991237 17.153123 -17.836926 
-0.473898 0.840397 0.290122 -89.344559 1.914856 45.663533 13.982825 2.292668 -96.624805 -2.877122 29.097518 138.656860 6.002181 0.479194 -9.003517 0.000000 -0.000000 0.000000 -15.186535 -0.945762 -98.796424 -4.750267 -22.619012 141.445748 -0.646493 -4.045245 -4.371838 0.000000 -0.000000 0.000000 -2.677445 1.734268 66.714151 3.052149 -2.738604 -3.836422 -1.450128 -2.147038 0.155325 -1.308222 7.030665 2.911705 5.192882 -5.449489 4.977903 -13.057646 -41.467047 1.533373 -7.011451 -15.402363 0.381455 7.637617 -24.202474 -2.410044 -5.521640 -15.871178 20.969921 14.137071 41.709559 8.044907 24.263451 28.155384 -4.058627 -19.848750 20.880520 -21.906676 4.850297 15.956642 -17.758837 
-0.502563 0.834926 0.314421 -88.029555 1.413904 50.884264 13.577964 0.751698 -95.776945 -2.280035 29.850299 139.339094 7.177521 1.024151 -14.612213 0.000000 -0.000000 0.000000 -15.545372 -0.990394 -98.157226 -4.273934 -21.853326 142.412348 -2.242700 -5.412508 -10.268196 0.000000 -0.000000 0.000000 -2.947449 1.844742 65.444067 3.708268 -3.504676 -3.285949 -1.403219 -2.261423 0.146583 -0.784857 7.036113 3.758272 4.678290 -6.148372 4.224276 -12.027824 -42.180917 0.354072 -6.105039 -16.985477 -0.762503 9.160738 -24.496044 -4.672340 -7.309757 -14.664720 21.009956 13.169786 41.928533 6.906968 22.540280 29.697228 -5.366921 -21.632982 20.287039 -23.027795 6.676029 14.967822 -17.054153 
-0.525872 0.829437 0.344850 -87.230312 0.717960 56.421704 11.943919 -1.171890 -93.491394 -2.575621 29.548159 138.251874 8.681336 1.917230 -21.773400 0.000000 -0.000000 0.000000 -15.417513 -0.209080 -96.154735 -3.844848 -20.342161 141.719237 -2.386051 -6.404621 -17.835124 0.000000 -0.000000 0.000000 -2.903309 2.003041 63.332925 3.732462 -3.781590 -3.624912 -1.459034 -2.478341 0.525384 -0.357024 6.187508 3.541373 4.569412 -6.323707 4.077797 -10.738233 -42.359369 -0.477781 -6.683171 -18.822357 -1.979778 10.482735 -26.540463 -5.323321 -8.853495 -14.031834 19.609506 11.724310 41.331076 5.388322 23.746143 30.028965 -5.618702 -24.290567 22.329854 -24.482154 7.415101 14.709480 -17.640789 
-0.545329 0.824552 0.380924 -87.179435 0.631664 62.318933 11.488782 -2.378185 -91.085855 -3.142871 29.066495 135.700189 9.172510 2.621146 -27.630397 0.000000 -0.000000 0.000000 -15.477458 0.408990 -93.980884 -3.570356 -19.701969 138.811256 -2.344792 -7.086708 -22.710963 0.000000 -0.000000 0.000000 -2.598060 1.483291 60.286857 3.656338 -3.854319 -3.117288 -1.661495 -2.284986 -0.251311 -0.500064 5.769866 3.577310 4.891409 -6.208149 2.734907 -11.408190 -42.516549 0.178891 -6.632278 -19.184800 -2.551829 11.656760 -30.221501 -5.593675 -10.823707 -13.502431 19.588075 12.152646 41.089429 6.104202 24.274131 29.191957 -5.757518 -26.511366 25.841746 -25.584815 6.710488 15.702752 -18.769776 
-0.561486 0.821192 0.422121 -87.093419 0.754618 67.758433 10.866328 -3.035089 -88.677326 -4.468646 28.236486 131.981382 9.032070 2.276896 -30.715422 0.000000 -0.000000 0.000000 -14.748044 1.300902 -90.635396 -3.134715 -18.898751 134.845312 -2.422935 -7.742053 -27.369173 0.000000 -0.000000 0.000000 -2.455268 1.292906 57.443967 4.006130 -4.194647 -2.297251 -1.470135 -2.180404 -0.672620 -0.432219 6.217114 2.537697 4.372752 -6.490237 1.414793 -11.444606 -42.475027 0.165210 -6.916899 -19.091916 -1.964046 12.636678 -33.359829 -5.036652 -10.374201 -14.343058 20.145205 12.432989 40.881639 6.377831 24.507790 28.097695 -4.987391 -27.998182 29.581106 -24.829460 7.410415 16.298271 -18.499312 
-0.576203 0.818986 0.464849 -87.441529 0.727571 72.890622 10.719595 -3.099010 -86.685626 -5.837694 26.937676 127.706376 7.677844 0.833334 -32.435048 0.000000 -0.000000 0.000000 -13.797942 2.516403 -87.704540 -3.052296 -18.117180 129.997709 -2.497290 -8.976891 -30.574002 0.000000 -0.000000 0.000000 -2.411065 1.569716 54.283263 4.158855 -4.443797 -1.237835 -1.356315 -2.154293 -1.692768 -0.590229 6.129789 2.762149 4.732782 -6.697618 -0.227435 -12.061999 -42.481687 1.144760 -7.049762 -18.913534 -1.876376 12.821069 -35.448630 -4.154725 -10.047448 -15.100326 21.097279 13.383986 40.415339 7.589998 25.199691 26.701871 -4.285983 -28.653513 33.422379 -22.560503 7.036182 17.291710 -16.878574 
-0.589267 0.816906 0.509643 -87.352319 0.367211 77.270495 10.129734 -3.655505 -84.217844 -7.740800 25.625891 122.497460 6.507104 -0.708397 -32.937993 0.000000 -0.000000 0.000000 -12.884696 3.136675 -84.445081 -3.681955 -17.374640 124.926827 -2.443762 -11.015875 -32.223116 0.000000 -0.000000 0.000000 -2.688674 1.919005 51.652312 4.214393 -4.915086 -0.855802 -1.238508 -2.156406 -2.063742 -0.590359 5.863077 2.740765 5.450007 -7.078544 -1.337637 -12.572391 -42.364647 2.002944 -7.141380 -19.080036 -1.982048 12.453254 -36.416126 -2.877616 -11.630794 -14.763223 21.674845 14.146063 39.644305 8.483003 26.790341 25.155575 -3.078501 -28.752898 36.742343 -20.648831 7.716295 17.124870 -16.560010 
-0.602296 0.814121 0.553618 -87.318411 -0.296071 81.293073 9.334469 -4.400659 -81.422428 -9.957941 24.274448 116.688831 5.579465 -2.342241 -32.944788 0.000000 -0.000000 0.000000 -12.285626 3.411704 -81.593790 -4.624636 -16.460990 119.755640 -2.159719 -12.280737 -32.736484 0.000000 -0.000000 0.000000 -3.160422 2.405649 48.569025 4.267587 -5.504692 -0.292836 -1.194425 -2.178649 -2.426336 -0.478573 5.897983 2.366130 5.664701 -7.567288 -2.158147 -13.407052 -41.863568 2.765534 -7.570288 -19.529000 -2.083795 11.669378 -36.653155 -1.096827 -13.143877 -14.179609 22.745264 15.686002 38.321303 9.772541 28.533387 23.678767 -1.773001 -28.136596 39.596632 -18.022460 8.949928 17.256350 -16.989264 
